<svg xmlns="http://www.w3.org/2000/svg" viewBox="0 0 680 420" fill="none">
  <defs>
    <marker id="arr" viewBox="0 0 10 10" refX="8" refY="5" markerWidth="6" markerHeight="6" orient="auto-start-reverse">
      <path d="M2 1L8 5L2 9" fill="none" stroke="#888" stroke-width="1.5" stroke-linecap="round" stroke-linejoin="round"/>
    </marker>
    <style>text { font-family: Arial, sans-serif; }</style>
  </defs>

  <!-- ═══ STEP 1 CARD ═══ -->
  <rect x="16" y="16" width="196" height="388" rx="10" fill="#fff" stroke="#E5E5E5" stroke-width="0.5"/>
  <rect x="16" y="16" width="196" height="48" rx="10" fill="#000"/>
  <rect x="16" y="48" width="196" height="16" fill="#000"/>
  <text x="114" y="44" text-anchor="middle" fill="#fff" font-size="12" font-weight="700">1 — Show</text>

  <circle cx="50" cy="96" r="18" fill="#000"/>
  <text x="50" y="102" text-anchor="middle" fill="#fff" font-size="15" font-weight="700">A</text>
  <text x="50" y="120" text-anchor="middle" fill="#111" font-size="10">Active</text>

  <circle cx="178" cy="96" r="18" fill="none" stroke="#DDD" stroke-width="1.5"/>
  <text x="178" y="102" text-anchor="middle" fill="#BBB" font-size="15" font-weight="700">B</text>
  <text x="178" y="120" text-anchor="middle" fill="#BBB" font-size="10">Waiting</text>

  <rect x="74" y="134" width="80" height="128" rx="10" fill="#111"/>
  <rect x="81" y="147" width="66" height="104" rx="3" fill="#fff"/>
  <rect x="100" y="138" width="28" height="6" rx="3" fill="#555" opacity="0.4"/>
  <rect x="87" y="153" width="18" height="18" rx="1.5" fill="#111"/>
  <rect x="90" y="156" width="12" height="12" rx="0.5" fill="#fff"/>
  <rect x="92" y="158" width="8" height="8" rx="0.5" fill="#111"/>
  <rect x="113" y="153" width="18" height="18" rx="1.5" fill="#111"/>
  <rect x="116" y="156" width="12" height="12" rx="0.5" fill="#fff"/>
  <rect x="118" y="158" width="8" height="8" rx="0.5" fill="#111"/>
  <rect x="87" y="179" width="18" height="18" rx="1.5" fill="#111"/>
  <rect x="90" y="182" width="12" height="12" rx="0.5" fill="#fff"/>
  <rect x="92" y="184" width="8" height="8" rx="0.5" fill="#111"/>
  <rect x="113" y="179" width="5" height="5" rx="1" fill="#111" opacity="0.7"/>
  <rect x="120" y="179" width="5" height="5" rx="1" fill="#111" opacity="0.4"/>
  <rect x="127" y="179" width="5" height="5" rx="1" fill="#111" opacity="0.8"/>
  <rect x="113" y="186" width="5" height="5" rx="1" fill="#111" opacity="0.4"/>
  <rect x="120" y="186" width="5" height="5" rx="1" fill="#111" opacity="0.7"/>
  <rect x="127" y="186" width="5" height="5" rx="1" fill="#111" opacity="0.5"/>
  <rect x="87" y="203" width="5" height="5" rx="1" fill="#111" opacity="0.6"/>
  <rect x="94" y="203" width="5" height="5" rx="1" fill="#111" opacity="0.8"/>
  <rect x="101" y="203" width="5" height="5" rx="1" fill="#111" opacity="0.4"/>
  <rect x="85" y="213" width="58" height="15" rx="3" fill="#111"/>
  <text x="114" y="224" text-anchor="middle" fill="#fff" font-size="8" font-weight="700">HELLO</text>

  <rect x="28" y="278" width="172" height="18" rx="4" fill="#F5F5F5"/>
  <text x="114" y="291" text-anchor="middle" fill="#666" font-size="11">ECDSA P-256 signed</text>
  <rect x="28" y="302" width="172" height="18" rx="4" fill="#F5F5F5"/>
  <text x="114" y="315" text-anchor="middle" fill="#666" font-size="11">GPS + timestamp + nonce</text>
  <text x="114" y="348" text-anchor="middle" fill="#666" font-size="11">A shows QR to B</text>
  <text x="114" y="364" text-anchor="middle" fill="#AAA" font-size="11">Private key never leaves device</text>
  <text x="114" y="395" text-anchor="middle" fill="#AAA" font-size="11">~5 seconds</text>

  <line x1="218" y1="200" x2="240" y2="200" stroke="#888" stroke-width="1" marker-end="url(#arr)" opacity="0.5"/>

  <!-- ═══ STEP 2 CARD ═══ -->
  <rect x="246" y="16" width="196" height="388" rx="10" fill="#fff" stroke="#E5E5E5" stroke-width="0.5"/>
  <rect x="246" y="16" width="196" height="48" rx="10" fill="#000"/>
  <rect x="246" y="48" width="196" height="16" fill="#000"/>
  <text x="344" y="44" text-anchor="middle" fill="#fff" font-size="12" font-weight="700">2 — Scan &amp; Accept</text>

  <circle cx="280" cy="96" r="18" fill="none" stroke="#DDD" stroke-width="1.5"/>
  <text x="280" y="102" text-anchor="middle" fill="#BBB" font-size="15" font-weight="700">A</text>
  <text x="280" y="120" text-anchor="middle" fill="#BBB" font-size="10">Waiting</text>

  <circle cx="408" cy="96" r="18" fill="#000"/>
  <text x="408" y="102" text-anchor="middle" fill="#fff" font-size="15" font-weight="700">B</text>
  <text x="408" y="120" text-anchor="middle" fill="#111" font-size="10">Active</text>

  <rect x="304" y="134" width="80" height="128" rx="10" fill="#111"/>
  <rect x="311" y="147" width="66" height="104" rx="3" fill="#fff"/>
  <rect x="330" y="138" width="28" height="6" rx="3" fill="#555" opacity="0.4"/>
  <rect x="317" y="153" width="54" height="52" rx="3" fill="#F5F5F5"/>
  <path d="M321 157 L321 163 M321 157 L327 157" stroke="#22aa66" stroke-width="1.5" fill="none" stroke-linecap="round"/>
  <path d="M367 157 L367 163 M367 157 L361 157" stroke="#22aa66" stroke-width="1.5" fill="none" stroke-linecap="round"/>
  <path d="M321 201 L321 195 M321 201 L327 201" stroke="#22aa66" stroke-width="1.5" fill="none" stroke-linecap="round"/>
  <path d="M367 201 L367 195 M367 201 L361 201" stroke="#22aa66" stroke-width="1.5" fill="none" stroke-linecap="round"/>
  <rect x="328" y="165" width="8" height="8" rx="1" fill="#111" opacity="0.35"/>
  <rect x="352" y="165" width="8" height="8" rx="1" fill="#111" opacity="0.35"/>
  <rect x="328" y="185" width="8" height="8" rx="1" fill="#111" opacity="0.35"/>
  <rect x="311" y="213" width="66" height="15" rx="3" fill="#666"/>
  <text x="344" y="224" text-anchor="middle" fill="#fff" font-size="8" font-weight="700">ACCEPT</text>

  <rect x="258" y="278" width="172" height="18" rx="4" fill="#F5F5F5"/>
  <text x="344" y="291" text-anchor="middle" fill="#666" font-size="11">Verifies A's signature</text>
  <rect x="258" y="302" width="172" height="18" rx="4" fill="#F5F5F5"/>
  <text x="344" y="315" text-anchor="middle" fill="#666" font-size="11">SHA-256 hash binding</text>
  <text x="344" y="348" text-anchor="middle" fill="#666" font-size="11">B's response bound to A's HELLO</text>
  <text x="344" y="364" text-anchor="middle" fill="#AAA" font-size="11">Cannot be replayed or reused</text>
  <text x="344" y="395" text-anchor="middle" fill="#AAA" font-size="11">~5 seconds</text>

  <line x1="448" y1="200" x2="470" y2="200" stroke="#888" stroke-width="1" marker-end="url(#arr)" opacity="0.5"/>

  <!-- ═══ STEP 3 CARD ═══ -->
  <rect x="476" y="16" width="196" height="388" rx="10" fill="#fff" stroke="#E5E5E5" stroke-width="0.5"/>
  <rect x="476" y="16" width="196" height="48" rx="10" fill="#000"/>
  <rect x="476" y="48" width="196" height="16" fill="#000"/>
  <text x="574" y="44" text-anchor="middle" fill="#fff" font-size="12" font-weight="700">3 — Verify &amp; Receipt</text>

  <circle cx="510" cy="96" r="18" fill="#000"/>
  <text x="510" y="102" text-anchor="middle" fill="#fff" font-size="15" font-weight="700">A</text>
  <text x="510" y="120" text-anchor="middle" fill="#111" font-size="10">Active</text>

  <circle cx="638" cy="96" r="18" fill="#000"/>
  <text x="638" y="102" text-anchor="middle" fill="#fff" font-size="15" font-weight="700">B</text>
  <text x="638" y="120" text-anchor="middle" fill="#22aa66" font-size="10">Complete</text>

  <rect x="524" y="134" width="100" height="132" rx="6" fill="#fff" stroke="#DDD" stroke-width="0.5"/>
  <rect x="524" y="134" width="100" height="28" rx="6" fill="#111"/>
  <rect x="524" y="150" width="100" height="12" fill="#111"/>
  <text x="574" y="151" text-anchor="middle" fill="#fff" font-size="9" font-weight="700">RECEIPT</text>
  <circle cx="574" cy="186" r="18" stroke="#22aa66" stroke-width="2" fill="none"/>
  <path d="M564 186 L570 192 L584 178" stroke="#22aa66" stroke-width="2" fill="none" stroke-linecap="round" stroke-linejoin="round"/>
  <rect x="536" y="210" width="76" height="3" rx="1.5" fill="#E5E5E5"/>
  <rect x="536" y="218" width="56" height="3" rx="1.5" fill="#E5E5E5"/>
  <circle cx="550" cy="234" r="6" fill="#111"/>
  <text x="550" y="238" text-anchor="middle" fill="#fff" font-size="8" font-weight="700">A</text>
  <line x1="558" y1="234" x2="590" y2="234" stroke="#DDD" stroke-width="0.5" stroke-dasharray="2,2"/>
  <circle cx="598" cy="234" r="6" fill="#111"/>
  <text x="598" y="238" text-anchor="middle" fill="#fff" font-size="8" font-weight="700">B</text>
  <rect x="534" y="248" width="80" height="8" rx="4" fill="#22aa66" opacity="0.55"/>

  <rect x="488" y="278" width="172" height="18" rx="4" fill="#F5F5F5"/>
  <text x="574" y="291" text-anchor="middle" fill="#666" font-size="11">Both signatures verified</text>
  <rect x="488" y="302" width="172" height="18" rx="4" fill="#F5F5F5"/>
  <text x="574" y="315" text-anchor="middle" fill="#666" font-size="11">Within 90s + 12 metres</text>
  <text x="574" y="348" text-anchor="middle" fill="#666" font-size="11">Tamper-evident receipt created</text>
  <text x="574" y="364" text-anchor="middle" fill="#AAA" font-size="11">Verifiable by anyone, forever</text>
  <text x="574" y="395" text-anchor="middle" fill="#AAA" font-size="11">~10 seconds</text>
</svg>
