<svg xmlns="http://www.w3.org/2000/svg" viewBox="0 0 680 280" fill="none">
  <defs>
    <marker id="arr" viewBox="0 0 10 10" refX="8" refY="5" markerWidth="6" markerHeight="6" orient="auto-start-reverse">
      <path d="M2 1L8 5L2 9" fill="none" stroke="#888" stroke-width="1.5" stroke-linecap="round" stroke-linejoin="round"/>
    </marker>
    <style>text { font-family: Arial, sans-serif; }</style>
  </defs>

  <!-- Step badge -->
  <rect x="20" y="20" width="96" height="32" rx="6" fill="#000"/>
  <text x="68" y="41" text-anchor="middle" fill="#fff" font-size="12" font-weight="700">Step 1 — Show</text>

  <!-- A: ACTIVE -->
  <circle cx="80" cy="110" r="32" fill="#000"/>
  <text x="80" y="119" text-anchor="middle" fill="#fff" font-size="26" font-weight="700">A</text>
  <text x="80" y="158" text-anchor="middle" fill="#111" font-size="11" font-weight="700">Person A</text>
  <text x="80" y="173" text-anchor="middle" fill="#555" font-size="10">Initiator · Active</text>

  <!-- Arrow A to phone -->
  <line x1="116" y1="110" x2="168" y2="110" stroke="#888" stroke-width="1" stroke-dasharray="4,3" marker-end="url(#arr)" opacity="0.5"/>

  <!-- Phone -->
  <rect x="176" y="60" width="120" height="190" rx="12" fill="#111"/>
  <rect x="186" y="76" width="100" height="158" rx="4" fill="#fff"/>
  <rect x="208" y="64" width="36" height="8" rx="4" fill="#555" opacity="0.35"/>
  <!-- QR finders -->
  <rect x="194" y="86" width="28" height="28" rx="2.5" fill="#111"/>
  <rect x="198" y="90" width="20" height="20" rx="1" fill="#fff"/>
  <rect x="201" y="93" width="14" height="14" rx="0.5" fill="#111"/>
  <rect x="230" y="86" width="28" height="28" rx="2.5" fill="#111"/>
  <rect x="234" y="90" width="20" height="20" rx="1" fill="#fff"/>
  <rect x="237" y="93" width="14" height="14" rx="0.5" fill="#111"/>
  <rect x="194" y="122" width="28" height="28" rx="2.5" fill="#111"/>
  <rect x="198" y="126" width="20" height="20" rx="1" fill="#fff"/>
  <rect x="201" y="129" width="14" height="14" rx="0.5" fill="#111"/>
  <!-- QR data -->
  <rect x="230" y="122" width="7" height="7" rx="1" fill="#111" opacity="0.7"/>
  <rect x="239" y="122" width="7" height="7" rx="1" fill="#111" opacity="0.4"/>
  <rect x="248" y="122" width="7" height="7" rx="1" fill="#111" opacity="0.8"/>
  <rect x="230" y="131" width="7" height="7" rx="1" fill="#111" opacity="0.4"/>
  <rect x="239" y="131" width="7" height="7" rx="1" fill="#111" opacity="0.8"/>
  <rect x="248" y="131" width="7" height="7" rx="1" fill="#111" opacity="0.5"/>
  <rect x="194" y="158" width="7" height="7" rx="1" fill="#111" opacity="0.6"/>
  <rect x="203" y="158" width="7" height="7" rx="1" fill="#111" opacity="0.8"/>
  <rect x="212" y="158" width="7" height="7" rx="1" fill="#111" opacity="0.3"/>
  <rect x="221" y="158" width="7" height="7" rx="1" fill="#111" opacity="0.7"/>
  <!-- HELLO pill -->
  <rect x="192" y="172" width="78" height="18" rx="4" fill="#111"/>
  <text x="231" y="185" text-anchor="middle" fill="#fff" font-size="9" font-weight="700">HELLO QR</text>
  <!-- Payload lines -->
  <rect x="194" y="198" width="60" height="3" rx="1.5" fill="#E5E5E5"/>
  <rect x="194" y="206" width="46" height="3" rx="1.5" fill="#E5E5E5"/>
  <rect x="194" y="214" width="54" height="3" rx="1.5" fill="#E5E5E5"/>

  <!-- B: INACTIVE -->
  <circle cx="600" cy="110" r="32" fill="none" stroke="#DDD" stroke-width="1.5"/>
  <text x="600" y="119" text-anchor="middle" fill="#CCC" font-size="26" font-weight="700">B</text>
  <text x="600" y="158" text-anchor="middle" fill="#BBB" font-size="11">Person B</text>
  <text x="600" y="173" text-anchor="middle" fill="#CCC" font-size="10">Waiting</text>

  <!-- Description box -->
  <rect x="316" y="60" width="262" height="190" rx="8" fill="#fff" stroke="#E5E5E5" stroke-width="0.5"/>
  <text x="447" y="90" text-anchor="middle" fill="#000" font-size="13" font-weight="700">Person A opens IRLid</text>
  <line x1="336" y1="100" x2="558" y2="100" stroke="#E5E5E5" stroke-width="0.5"/>
  <text x="334" y="120" fill="#555" font-size="11">Their browser generates a unique</text>
  <text x="334" y="136" fill="#555" font-size="11">ECDSA P-256 key pair. The private</text>
  <text x="334" y="152" fill="#555" font-size="11">key never leaves the device.</text>
  <text x="334" y="176" fill="#555" font-size="11">The signed HELLO QR encodes:</text>
  <text x="346" y="192" fill="#888" font-size="11">&#x2192;  Public key (compact JWK)</text>
  <text x="346" y="208" fill="#888" font-size="11">&#x2192;  GPS coordinates (~1.1m)</text>
  <text x="346" y="224" fill="#888" font-size="11">&#x2192;  Unix timestamp + nonce</text>
  <text x="346" y="240" fill="#888" font-size="11">&#x2192;  ECDSA signature over all fields</text>
</svg>
