<svg xmlns="http://www.w3.org/2000/svg" viewBox="0 0 680 280" fill="none">
  <defs>
    <marker id="arr" viewBox="0 0 10 10" refX="8" refY="5" markerWidth="6" markerHeight="6" orient="auto-start-reverse">
      <path d="M2 1L8 5L2 9" fill="none" stroke="#888" stroke-width="1.5" stroke-linecap="round" stroke-linejoin="round"/>
    </marker>
    <style>text { font-family: Arial, sans-serif; }</style>
  </defs>

  <!-- Step badge -->
  <rect x="20" y="20" width="96" height="32" rx="6" fill="#000"/>
  <text x="68" y="41" text-anchor="middle" fill="#fff" font-size="12" font-weight="700">Step 1 — Show</text>

  <!-- A: ACTIVE  cx=72 -->
  <circle cx="72" cy="110" r="30" fill="#000"/>
  <text x="72" y="119" text-anchor="middle" fill="#fff" font-size="24" font-weight="700">A</text>
  <text x="72" y="152" text-anchor="middle" fill="#111" font-size="11" font-weight="700">Person A</text>
  <text x="72" y="166" text-anchor="middle" fill="#555" font-size="10">Initiator · Active</text>

  <!-- Dashed arrow A to phone -->
  <line x1="106" y1="110" x2="148" y2="110" stroke="#888" stroke-width="1" stroke-dasharray="4,3" marker-end="url(#arr)" opacity="0.5"/>

  <!-- Phone: x=156 w=110 -->
  <rect x="156" y="60" width="110" height="185" rx="11" fill="#111"/>
  <rect x="165" y="75" width="92" height="154" rx="3" fill="#fff"/>
  <rect x="184" y="64" width="32" height="7" rx="3.5" fill="#555" opacity="0.35"/>
  <!-- QR finders -->
  <rect x="172" y="83" width="26" height="26" rx="2" fill="#111"/>
  <rect x="175" y="86" width="20" height="20" rx="1" fill="#fff"/>
  <rect x="178" y="89" width="14" height="14" rx="0.5" fill="#111"/>
  <rect x="205" y="83" width="26" height="26" rx="2" fill="#111"/>
  <rect x="208" y="86" width="20" height="20" rx="1" fill="#fff"/>
  <rect x="211" y="89" width="14" height="14" rx="0.5" fill="#111"/>
  <rect x="172" y="116" width="26" height="26" rx="2" fill="#111"/>
  <rect x="175" y="119" width="20" height="20" rx="1" fill="#fff"/>
  <rect x="178" y="122" width="14" height="14" rx="0.5" fill="#111"/>
  <!-- QR data dots -->
  <rect x="205" y="116" width="6" height="6" rx="1" fill="#111" opacity="0.7"/>
  <rect x="213" y="116" width="6" height="6" rx="1" fill="#111" opacity="0.4"/>
  <rect x="221" y="116" width="6" height="6" rx="1" fill="#111" opacity="0.8"/>
  <rect x="205" y="124" width="6" height="6" rx="1" fill="#111" opacity="0.4"/>
  <rect x="213" y="124" width="6" height="6" rx="1" fill="#111" opacity="0.7"/>
  <rect x="221" y="124" width="6" height="6" rx="1" fill="#111" opacity="0.5"/>
  <rect x="172" y="150" width="6" height="6" rx="1" fill="#111" opacity="0.6"/>
  <rect x="180" y="150" width="6" height="6" rx="1" fill="#111" opacity="0.8"/>
  <rect x="188" y="150" width="6" height="6" rx="1" fill="#111" opacity="0.3"/>
  <rect x="196" y="150" width="6" height="6" rx="1" fill="#111" opacity="0.7"/>
  <!-- HELLO pill -->
  <rect x="170" y="162" width="72" height="16" rx="3" fill="#111"/>
  <text x="206" y="174" text-anchor="middle" fill="#fff" font-size="8" font-weight="700">HELLO QR</text>
  <!-- Payload lines -->
  <rect x="172" y="186" width="54" height="3" rx="1.5" fill="#E5E5E5"/>
  <rect x="172" y="193" width="42" height="3" rx="1.5" fill="#E5E5E5"/>
  <rect x="172" y="200" width="50" height="3" rx="1.5" fill="#E5E5E5"/>

  <!-- Description box: x=278 w=310 — fits between phone and B -->
  <rect x="278" y="60" width="310" height="185" rx="8" fill="#fff" stroke="#E5E5E5" stroke-width="0.5"/>
  <text x="433" y="88" text-anchor="middle" fill="#000" font-size="13" font-weight="700">Person A opens IRLid</text>
  <line x1="296" y1="97" x2="570" y2="97" stroke="#E5E5E5" stroke-width="0.5"/>
  <text x="294" y="116" fill="#555" font-size="11">Their browser generates a unique ECDSA P-256</text>
  <text x="294" y="132" fill="#555" font-size="11">key pair. The private key never leaves the device.</text>
  <text x="294" y="156" fill="#555" font-size="11">The signed HELLO QR encodes:</text>
  <text x="306" y="172" fill="#888" font-size="11">&#x2192;  Public key (compact JWK)</text>
  <text x="306" y="188" fill="#888" font-size="11">&#x2192;  GPS coordinates (~1.1m precision)</text>
  <text x="306" y="204" fill="#888" font-size="11">&#x2192;  Unix timestamp + random nonce</text>
  <text x="306" y="220" fill="#888" font-size="11">&#x2192;  ECDSA signature over all fields</text>

  <!-- B: INACTIVE  cx=630 — safely right of desc box which ends at 588 -->
  <circle cx="630" cy="110" r="30" fill="none" stroke="#DDD" stroke-width="1.5"/>
  <text x="630" y="119" text-anchor="middle" fill="#CCC" font-size="24" font-weight="700">B</text>
  <text x="630" y="152" text-anchor="middle" fill="#BBB" font-size="11">Person B</text>
  <text x="630" y="166" text-anchor="middle" fill="#CCC" font-size="10">Waiting</text>
</svg>
